<svg xmlns="http://www.w3.org/2000/svg" xml:space="preserve" width="144" height="99.4" viewBox="0 0 144 99.4">
  <path fill="#000" d="M35.8 16.4c-.4-.3-.6-.7-.6-1.3 0-.9.8-1.5 1.7-1.5.4 0 .8.1 1 .3 1.2.9 2.6 1.4 4.1 1.4s2.3-.6 2.3-1.5-.6-1.3-3.2-2c-3.2-.8-5.3-1.6-5.3-4.9 0-2.8 2.3-4.8 5.6-4.8 1.8 0 3.6.4 5.1 1.3.8.5 1 1.5.5 2.2-.3.5-.8.7-1.4.7-.4 0-.6-.1-.9-.3-1-.6-2.1-.9-3.3-1-1.4 0-2 .6-2 1.3 0 1 .6 1.4 3.5 2.1 3.2.8 5.1 2 5.1 4.8 0 3.1-2.4 4.9-5.9 4.9-2.4.1-4.5-.4-6.3-1.7zm20.5 2c-3.4.2-6.3-2.4-6.5-5.7v-.6c-.2-3.3 2.5-6.1 5.8-6.3h.4c3.2-.1 5.8 2.5 5.9 5.6v.2c0 .8-.6 1.5-1.5 1.6h-7c.2 1.5 1.5 2.5 3 2.4.9 0 1.8-.3 2.5-.8.3-.2.6-.3.8-.3.8 0 1.4.6 1.4 1.3v.1c0 .4-.2.7-.5 1-1.2 1-2.6 1.5-4.3 1.5zm2.3-7.4c-.2-1.5-1.1-2.5-2.6-2.5s-2.4 1-2.7 2.5h5.3zm11.8 7.4c-3.4.2-6.3-2.4-6.5-5.7v-.6c-.2-3.3 2.5-6.1 5.8-6.3h.3c3.2-.1 5.8 2.5 5.9 5.6v.2c0 .8-.6 1.5-1.5 1.6h-7c.2 1.5 1.5 2.5 3 2.4.9 0 1.8-.3 2.5-.8.3-.2.6-.3.8-.3.8 0 1.3.6 1.4 1.3v.1c0 .4-.2.7-.5 1-1.1 1-2.6 1.5-4.2 1.5zm2.3-7.4c-.2-1.5-1.1-2.5-2.6-2.5s-2.4 1-2.7 2.5h5.3zm5.9 5.4c-.5-.3-.6-.8-.6-1.3 0-.9.8-1.5 1.7-1.5.4 0 .8.1 1 .3 1.2.9 2.6 1.3 4.1 1.3 1.5 0 2.3-.6 2.3-1.5s-.6-1.3-3.2-2c-3.2-.8-5.3-1.6-5.3-4.9C78.6 4 80.9 2 84.3 2c1.8 0 3.6.4 5.1 1.3.8.5 1 1.5.6 2.2-.4.5-1 .8-1.5.8-.4 0-.6-.1-.9-.3-1-.6-2.3-1-3.4-1.1-1.4 0-2 .6-2 1.3 0 1 .6 1.3 3.5 2.1 3.3.9 5.2 2 5.2 4.8 0 3.1-2.4 4.9-5.9 4.9-2.4.3-4.6-.3-6.4-1.6zm14-1.8c0-2.7 2-3.9 5-3.9 1 0 2 .2 3 .4v-.3c0-1.4-.9-2.2-2.7-2.2-.8 0-1.7.1-2.4.4-.2.1-.4.1-.6.1-.8 0-1.4-.6-1.5-1.3 0-.6.4-1.1.9-1.4 1.4-.4 2.7-.6 4-.6 1.7-.1 3.2.4 4.4 1.3.9 1.1 1.4 2.5 1.3 3.9v5.5c0 .9-.8 1.6-1.7 1.6-.8.1-1.5-.6-1.7-1.4-.9 1-2.3 1.5-3.7 1.5-2.4.1-4.3-1.2-4.3-3.6zm8-.8v-.6c-.8-.3-1.5-.4-2.3-.4-1.5 0-2.4.6-2.4 1.6 0 .9.8 1.5 2 1.5 1.6 0 2.7-.8 2.7-2.1zm8.4 2.9-3-8.5c-.1-.3-.2-.6-.2-.8 0-.9.8-1.5 1.7-1.5.8 0 1.5.6 1.7 1.4l1.8 6.1 2-6.1c.2-.8.9-1.4 1.8-1.4h.2c.8 0 1.5.6 1.8 1.4l2 6.1 2-6.1c.2-.7.8-1.3 1.7-1.3.8 0 1.7.6 1.7 1.5v.1c0 .3 0 .5-.1.7l-3 8.5c-.2.9-1 1.5-2 1.5h-.1c-.9 0-1.7-.6-1.8-1.5l-2-6-2 6c-.2.8-.9 1.5-1.8 1.5h-.1c-1.3 0-2.1-.6-2.3-1.6zM42.6 32.2c.1.9-.2 1.9-.8 2.7-.5.6-1.3 1-2.1 1-.5 0-1-.1-1.4-.4-.4-.2-.8-.6-.9-.9l-.1 1.1h-.8V25h.8v4.5c.2-.4.6-.7.9-1 .5-.3.9-.4 1.4-.4.8 0 1.7.4 2.1 1.1.6.8.8 1.8.8 2.8l.1.2zm-.9-.2c0-.8-.2-1.6-.6-2.3-.4-.6-1-.9-1.6-.9-.6 0-1 .2-1.4.6-.4.3-.6.6-.8 1.1v3.4c.2.4.5.7.8 1 .4.3.9.4 1.4.4.6 0 1.3-.3 1.7-.8.4-.6.6-1.4.6-2.1l-.1-.4zm4.9 1.6.3.9 2.3-6.3h.9l-3.3 8.6c-.2.4-.5.9-.8 1.3-.4.4-.8.6-1.4.6h-.4c-.1 0-.2 0-.3-.1l.1-.7h.6c.4 0 .6-.1.8-.4.3-.3.5-.6.6-1l.4-1-3-7.3h.9c.2 0 2.3 5.5 2.3 5.4zm16.8.2c0 .7-.1 1.5-.3 2.2-.9-.3-1.5-1.1-1.4-2v-1.6c0-.7-.2-1.4-.6-2-.5-.6-1.1-.9-1.8-.8-1.4 0-2 .9-2 2.7 0 .5.1 1 .3 1.5l.3 1.5c0 .7-.4 1.1-1.1 1.1-.3 0-.6-.3-.6-.7-.2-.9-.3-1.8-.4-2.7-.1-1.4-.2-2.4-.2-2.8-.1-.7.2-1.5.6-2 .5.4 1 .6 1.7.6h1.5c1.3 0 2.5.6 3.2 1.8.6 1.1.9 2.4.9 3.7.1-.3-.1-.5-.1-.5zm11.2.9c0 .6-.6 1-2 1.3-.9.2-1.8.4-2.7.4-.8 0-1.7-.1-2.4-.5-.8-.4-1.4-1-1.8-1.6l-.8-.7c-.4-.4-.5-.6-.5-.8 0-.3.1-.5.3-.6.2-.2.3-.4.5-.6l.6-1.2c.5-.9 1.2-1.6 2.1-2.1.9-.4 1.8-.7 3-.8.8 0 1.7.3 2.3.8.6.6.9 1.4.8 2.2 0 1.3-.8 2.2-2.4 2.7-1.4.2-2.7.4-4.1.5.5.9 1.4 1.5 2.4 1.5.8-.1 1.4-.3 2-.6.6-.3 1.1-.4 1.8-.6.3 0 .6.1.8.2-.1 0 .1.2.1.5zm-2.2-4.2c0-.4-.2-1-.6-1.3-.4-.4-.8-.6-1.4-.6-.8 0-1.7.4-2.3.8-.8.4-1.2 1.1-1.3 1.9 0 .7.6 1.1 2 1.1.8 0 1.5-.2 2.3-.4.9-.3 1.3-.8 1.3-1.5zm10.4.8c0 1.1-.2 2.1-.6 3.1-.6 1.2-1.3 1.8-2.3 1.8-1.7 0-2.7-1-3.3-3-.4-1.6-.6-3.3-.6-4.9l-.8.2c-.3.1-.6.1-.8.1-.5 0-.6-.4-.6-1v-.2c.6 0 1.1-.1 1.5-.3.6-.2.8-.7.8-1.3 0-.4-.1-.6-.2-1s-.2-.6-.2-1c0-.6.4-1 1.2-1.1.1.8.2 1.6.1 2.5-.1.6.1 1.3.5 1.8.4.3.8.5 1.2.5l1.8.2 1.8.3v1c-.4 0-.8 0-1.5-.1-.6-.1-1.2-.1-1.5-.1-1.2 0-1.8.5-1.8 1.3 0 1 .1 2.1.5 3 .4 1.4.9 2.1 1.8 2.1.6 0 1.2-.6 1.7-1.8.5-1.5 1-2.3 1.5-2.5 0 .4.1.6.1.8-.4-.1-.3-.4-.3-.4zm12.4 2.8c0 .7-.1 1.5-.5 2.2-.6-.4-.9-.6-.9-.9 0-.2 0-.5.1-.9s.1-.7.1-.9c0-1-.2-2-.6-3-.5-1.3-1.1-1.9-2-1.9-.6 0-1.2.4-1.4 1-.3.6-.4 1.2-.4 1.8 0 .3.1.6.1.9.1.3.1.6.1.9 0 .5-.2.9-.4 1.4-.6-.2-.9-.6-1-1.3-.2-1.8-.3-2.7-.4-2.7-.3-1.2-.8-1.8-1.5-1.8-.5 0-.8.4-1.1 1-.2.4-.3 1-.3 1.5 0 .7.1 1.4.3 2.1.2.7.3 1.3.3 2.1 0 .3 0 .6-.1.8-.8-.3-1.3-1-1.3-1.8-.1-.8-.2-1.6-.2-2.5 0-.3 0-.7-.1-1.4v-1.4c0-.6.1-1 .2-1.5.6.2 1 .2 1.5.3.2 0 .3-.1.5-.1.2-.1.4-.1.6-.1.5 0 .8.2 1.2.4 0 .1.4.4.9.9.6-1 1.7-1.6 2.9-1.6 1.1 0 2 .9 2.7 2.7.5 1.1.7 2.4.7 3.8zm7.7-2.9c.1 1.1-.1 2.3-.4 3.4s-1.3 1.8-2.5 1.8c-1.3 0-2.3-1-3-3-.6-1.5-.8-3-.8-4.6 0-1.3.4-2.1 1.2-2.4.2 1 .2 2.1.2 3.1 0 .9.1 1.8.2 2.7.2.9.8 1.8 1.5 2.3.4.3.8.4 1.1.5.9 0 1.4-1.3 1.4-3.9 0-.4-.1-.9-.2-1.3-.1-.5-.2-.9-.2-1.4 0-.5.2-.9.5-1.3.6.6.9 1.2 1 1.9.1.8.1 1.5 0 2.2zm12.3 2.9c0 .7-.1 1.5-.5 2.2-.6-.4-.9-.6-.9-.9 0-.2 0-.5.1-.9s.1-.7.1-.9c0-1-.2-2-.6-3-.5-1.3-1.1-1.9-2-1.9-.6 0-1.2.4-1.4 1-.3.6-.4 1.2-.4 1.8 0 .3.1.6.1.9.1.3.1.6.1.9 0 .5-.2.9-.4 1.4-.6-.2-.9-.6-1-1.3-.2-1.8-.3-2.7-.4-2.7-.3-1.2-.8-1.8-1.5-1.8-.5 0-.8.4-1.1 1-.3.4-.4 1-.4 1.5 0 .7.1 1.4.3 2.1.2.7.3 1.3.3 2.1 0 .3 0 .6-.1.8-.8-.3-1.3-1-1.3-1.8-.1-.8-.2-1.8-.2-2.5 0-.3 0-.7-.1-1.4 0-.6-.1-1.1-.1-1.4 0-.6.1-1 .2-1.5.6.2 1 .2 1.5.3.2 0 .3-.1.5-.1.2-.1.4-.1.6-.1.5 0 .8.2 1.2.4 0 .1.4.4.9.9.6-1 1.7-1.6 2.9-1.6 1.1 0 2 .9 2.7 2.7.6 1.1.9 2.4.9 3.8zm7.6-.3c0 .6-.3 1.3-.8 1.8-.6.4-1.3.6-2 .6-.8 0-1.7-.2-2.4-.6-.8-.3-1.3-1-1.3-1.8 0-.4.2-.6.6-.6.6.1 1.1.4 1.5.8.5.4 1.1.7 1.8.8.4 0 .6-.2.8-.4.2-.3.3-.6.3-.9 0-.6-.5-.9-1.3-1.1-.8-.2-1.5-.4-2.4-.6-.8-.5-1.4-1.3-1.3-2.2 0-.9.6-1.8 1.3-2.2.8-.6 1.7-.8 2.6-.8.5-.1 1 .1 1.4.5.3.4.4.9.4 1.5v.2c-.8-.4-1.7-.6-2.6-.7-.5 0-.9.2-1.2.4-.4.3-.5.7-.5 1.2s.5.8 1.3 1.1c.8.2 1.7.5 2.5.8.8.3 1.3 1.2 1.3 2.2zM14.8 0C6.6 0 0 6.8 0 15.1c0 2.7.8 5.3 2 7.5 1.4 2.5 4.9 6.9 4.9 6.9l7.9 9.9 7.9-9.9s3.6-4.4 4.9-6.9c1.2-2.3 2-4.8 2-7.5C29.6 6.8 22.9 0 14.8 0zm.1 23.7c-4.3 0-7.7-3.6-7.7-7.9s3.4-7.9 7.7-7.9 7.7 3.6 7.7 7.9-3.4 7.9-7.7 7.9z"/>
</svg>
