<svg xmlns="http://www.w3.org/2000/svg" xml:space="preserve" width="153" height="71.12" viewBox="0 0 153 71.12">
  <path fill="#fff" fill-rule="evenodd" d="M83.36 9.63c0 .48-.05.96-.16 1.44l-2.13 9.74h-4.04l1.86-8.72c.11-.48.16-.9.16-1.22 0-.85-.37-1.22-1.12-1.22-2.13 0-5.05 4.31-5.75 7.61l-.74 3.62H67.4l4.26-19.63L75.92.13l-2.07 9.63c1.49-1.81 3.51-3.25 5.85-3.25 2.49-.07 3.66 1.15 3.66 3.12zM66.02 21.12H61.6l-.85-4.95 3.88-2.77 1.39 7.72zM19.74 2.13l-.96 3.62c-1.7-.64-3.56-1.01-5.32-1.01-5.59-.06-8.88 3.93-8.88 8.56 0 2.34 1.17 4.47 5.05 4.47 1.12 0 2.18-.11 3.03-.37l1.12-5.11 4.42-1.12L16.33 20c-2.23.74-5.05 1.12-7.39 1.12C2.61 21.07 0 18.09 0 13.78 0 6.65 5.64 1.33 13.78 1.33c2.18 0 4.15.32 5.96.8zM133 0l-3.4 15.69c-.37 1.54-.8 3.78-1.06 5.11h-3.99c.48-1.06 1.12-2.55 1.97-4.52h-.11c-1.28 2.07-3.94 4.84-7.13 4.84-2.45 0-3.78-1.38-3.78-4.42 0-5.37 3.3-10.32 10.32-10.32.53 0 1.01.05 1.76.11l1.17-5.32L133 0zm-6.06 9.42c-.53-.11-1.06-.21-1.81-.21-3.72 0-5.43 3.83-5.43 6.76 0 1.38.43 1.97 1.22 1.97 2.29 0 5.16-4.63 5.8-7.61l.22-.91zm-11.82-2.61-1.92 8.88c-.32 1.54-.8 3.78-1.06 5.11h-3.99c.53-1.12 1.12-2.55 1.97-4.52h-.11c-1.28 2.07-3.94 4.84-7.13 4.84-2.45 0-3.78-1.38-3.78-4.42 0-5.37 3.3-10.32 10.32-10.32 1.93 0 3.84.11 5.7.43zm-4.62 2.61c-.53-.11-1.06-.21-1.81-.21-3.72 0-5.43 3.83-5.43 6.76 0 1.38.43 1.97 1.22 1.97 2.29 0 5.16-4.63 5.8-7.61l.22-.91zM93.84 6.38c3.62 0 4.89 1.76 4.89 3.46 0 3.35-3.83 5.05-10.11 5.21 0 .32-.11.8-.11 1.12 0 1.6 1.01 2.02 2.98 2.02 1.44 0 3.14-.48 4.58-1.12v2.77c-1.54.59-3.94 1.22-5.91 1.22-3.78 0-5.64-1.65-5.64-4.79-.04-5.9 4-9.89 9.32-9.89zm.86 3.89c0-.8-.59-1.33-1.65-1.33-2.13 0-3.35 1.54-3.99 3.62 3.72-.06 5.64-.75 5.64-2.29zm-30.54 2.66-11.54 3.72-2.5 4.1h-4.31L57.46 1.6h4.63l2.07 11.33zm-4.36 0-.69-4.04c-.16-.96-.27-2.02-.32-3.09h-.05c-.48 1.01-1.06 2.13-1.7 3.25l-2.29 3.88h5.05zm-24.26-1.01c0 5.16-3.94 9.15-9.15 9.15-3.88 0-6.65-1.6-6.65-5.64 0-5.05 3.88-9.04 9.1-9.04 4.62-.01 6.7 1.91 6.7 5.53zm-4.21.26c0-1.81-.85-2.77-2.61-2.77-3.19 0-4.79 3.3-4.79 6.12 0 1.54.85 2.55 2.71 2.55 2.99-.05 4.69-3.08 4.69-5.9zm17.24.75H37.88c-.11 1.38-.53 2.66-1.01 3.78" clip-rule="evenodd"/>
</svg>
