<svg xmlns="http://www.w3.org/2000/svg" xml:space="preserve" viewBox="0 0 153 84.7" width="153" height="84.7">
  <path fill="#fff" fill-rule="evenodd" d="M35.76.11c-3.58 0-6.59 1.34-8.72 3.8-2.01 2.24-3.13 5.25-3.13 8.61 0 2.57.89 4.81 2.57 6.48 1.79 1.79 4.36 2.79 7.49 2.79 3.46 0 6.48-1.34 8.61-3.8 1.9-2.24 3.02-5.25 3.02-8.61 0-2.57-.89-4.81-2.46-6.48C41.46 1.12 38.89.11 35.76.11zm-1.67 16.1c-2.35 0-3.91-1.68-3.91-4.25 0-3.58 2.35-6.37 5.25-6.37 2.35 0 4.02 1.68 4.02 4.25-.11 3.57-2.34 6.37-5.36 6.37zM102.04.34h-5.92c-2.12 0-3.46 1.01-3.8 3.13l-3.13 14.98c-.22.89-.11 1.68.34 2.24.45.45 1.12.78 1.9.78h.78c1.79 0 2.68-.89 3.13-2.91l.78-3.69v-.11h1.79l4.02 5.36c.78 1.12 1.9 1.68 3.13 1.68 1.45 0 3.02-.78 4.02-1.23-.22-.45-1.23-1.79-2.35-3.24-2.46-3.35-2.35-3.35-2.35-3.46 1.45-.56 2.68-1.45 3.58-2.57 1.01-1.23 1.56-2.79 1.68-4.47.11-1.9-.34-3.35-1.34-4.36-1.12-1.46-3.24-2.13-6.26-2.13zm1.45 7.37c-.22 1.79-1.45 2.68-3.58 2.68H97v-.11l1.12-5.14v-.11h2.91c1.01 0 1.68.22 2.12.67.34.45.46 1.12.34 2.01zm27.05-4.8c-1.79-1.79-4.36-2.79-7.38-2.79-3.58 0-6.59 1.34-8.72 3.8-2.01 2.24-3.13 5.25-3.13 8.61 0 2.57.89 4.81 2.46 6.48 1.79 1.79 4.36 2.79 7.38 2.79 3.58 0 6.59-1.34 8.72-3.8 2.01-2.24 3.13-5.36 3.13-8.61 0-2.57-.89-4.81-2.46-6.48zm-9.05 13.3c-2.35 0-3.91-1.68-3.91-4.25 0-3.58 2.35-6.37 5.25-6.37 2.35 0 4.02 1.68 4.02 4.25-.11 3.57-2.34 6.37-5.36 6.37zM86.06.56c-1.68 0-3.02 1.45-3.46 3.58l-1.79 8.38c-.45 2.46-1.68 3.69-3.46 3.69-1.12 0-1.9-.34-2.46-.89-.56-.67-.67-1.9-.34-3.35l1.68-8.16c.22-1.23.11-2.12-.34-2.68-.45-.45-1.01-.67-2.01-.67h-.34c-1.9 0-3.13 1.01-3.46 2.91l-1.79 8.16c-.67 3.35-.34 5.92 1.01 7.6 1.45 1.79 3.91 2.68 7.38 2.68 2.79 0 5.03-.78 6.71-2.12 1.68-1.45 2.91-3.69 3.58-6.71L89.65.69 86.06.56zM53.54.45c-2.35 0-3.69 1.12-4.14 3.58l-3.35 16.76c-.34 1.56-.22 2.35.34 3.02.45.56 1.56.89 3.02.89h10.95c2.01 0 3.24-.22 3.8-.78.89-.89 1.01-1.68 1.01-2.46 0-1.12-.89-1.79-2.57-1.79H52.31s.34-1.9.56-2.79c.34-1.56.89-1.9 2.12-1.9h5.7c1.56 0 2.01-.34 2.35-.67.45-.56.78-1.45.78-2.35 0-1.01-.78-1.68-2.24-1.68H54.2v-.11s.45-2.35.56-2.57c.22-1.12.67-1.9 1.68-1.9h7.6c1.79 0 2.91-.67 3.35-2.01s.67-2.79.67-3.13L53.54.45zM12.52.11c-3.35 0-6.48 1.34-8.94 3.8C1.34 6.26 0 9.5 0 12.63c0 2.68.89 5.03 2.68 6.59 1.68 1.56 4.02 2.46 6.71 2.46 2.35 0 4.14-.78 5.48-2.35l.11-.22v.22c0 1.45.78 2.12 2.46 2.12 1.01 0 2.01-.34 2.24-.34l1.9-8.94c.22-1.01.11-1.79-.22-2.24-.46-.21-1.02-.43-1.8-.43h-6.04c-1.12 0-1.68.22-2.12.67-.56.56-.78 1.79-.78 2.35 0 1.01.78 1.56 2.12 1.56h2.46v.11c-.45 1.23-.78 1.56-1.45 2.01-.78.56-1.68.78-2.68.78-1.34 0-2.68-.56-3.58-1.45-.89-.89-1.34-2.12-1.34-3.46 0-1.79.67-3.46 1.79-4.81s2.68-2.12 4.36-2.24h5.81c2.35 0 3.02-1.01 3.35-1.9.45-1.34.67-2.68.67-3.13l-9.61.12z" clip-rule="evenodd"/>
</svg>
