<svg xmlns="http://www.w3.org/2000/svg" xml:space="preserve" width="153" height="109.4" viewBox="0 0 153 109.4">
  <path fill="#000" d="M4.21 17.99 5.5 9.88h.05l1.29 8.11H4.21zM3.49 6.1 0 24.99h3.14l.56-4.19h3.57l.56 4.19h3.14L7.49 6.1h-4zm11.94 4.13h.05l2.93 14.76H20l2.93-14.76h.05v14.76h2.82V6.1h-4.27l-2.31 11.03h-.05L16.86 6.1h-4.27V25h2.82l.02-14.77zm20.38 6.69h-.05L31.78 6.1h-3.01V25h2.93V13.18h.05l4.13 11.81h2.82V6.1h-2.9v10.82zm14.95 5.26h-5.8v-5.56h4.19V13.8h-4.19V8.94h5.45V6.1h-8.7V25h9.05v-2.82zm4.35-11.65c0-1.18.56-1.85 1.61-1.85.72 0 1.58.48 1.72 2.09l3.09-.35c-.3-2.68-1.85-4.59-4.51-4.59-3.19 0-5.02 1.69-5.02 4.72 0 5.42 6.6 6.42 6.6 10.15 0 1.13-.75 1.72-1.88 1.72-1.05 0-1.8-.94-1.93-2.85l-3.09.46c.13 2.82 1.85 5.23 4.89 5.23 3.03 0 5.13-1.72 5.13-4.83-.01-5.13-6.61-6.68-6.61-9.9m10.3 14.46h3.25V8.92h3.14V6.1h-9.53v2.82h3.14v16.07zm12.65-11.7H78L75.72 6.1h-3.3l3.92 11.03v7.86h3.25v-7.86L83.5 6.1h-3.3l-2.14 7.19zM.46 29.96h1.96v11.38H.46V29.96zm3.65 11.38V29.96h1.83l2.39 6.52h.03v-6.52h1.77v11.38h-1.7l-2.5-7.11h-.02v7.11h-1.8zm8.75-9.69h-1.91v-1.69h5.74v1.69h-1.88v9.69h-1.96v-9.69zm4.72 9.69V29.96h5.23v1.69h-3.3v2.93h2.52v1.69h-2.52v3.38h3.52v1.69h-5.45zm8.67 0h-1.96V29.96h2.74c1.1 0 1.93.27 2.47.78.56.51.83 1.37.83 2.58 0 .46-.03.86-.11 1.18-.05.3-.16.56-.32.83-.13.21-.27.4-.43.54-.16.13-.32.24-.51.32l1.66 5.15h-1.99l-1.4-4.72c-.13.03-.3.03-.46.03h-.54c.02.02.02 4.69.02 4.69zm.03-6.28h.7c.27 0 .48-.03.67-.08a.81.81 0 0 0 .46-.3c.11-.13.19-.32.24-.54.05-.21.08-.51.08-.83 0-.67-.11-1.13-.32-1.37s-.59-.38-1.13-.38h-.7v3.5zm5.61 6.28V29.96h1.83l2.39 6.52h.03v-6.52h1.77v11.38h-1.72l-2.5-7.11h-.03v7.11h-1.77zm8.99 0h-1.91l2.09-11.38h2.44l2.09 11.38H43.7l-.35-2.52H41.2l-.32 2.52zm.62-4.21h1.58l-.78-4.89h-.03l-.77 4.89zm5.85-5.48h-1.88v-1.69h5.74v1.69h-1.88v9.69h-1.99v-9.69zm4.91-1.69h1.96v11.38h-1.96V29.96zm3.52 2.76c0-.4.05-.78.19-1.13.11-.35.3-.67.56-.94.24-.27.56-.48.94-.62.38-.16.81-.21 1.34-.21s.97.08 1.34.21c.38.16.67.35.94.62.24.27.43.56.56.94.11.35.19.72.19 1.13v5.85c0 .4-.05.78-.19 1.13-.11.35-.3.67-.56.94-.24.27-.56.48-.94.62-.38.16-.81.24-1.34.24s-.97-.08-1.34-.24c-.38-.16-.67-.35-.94-.62-.24-.27-.43-.59-.56-.94-.13-.38-.19-.75-.19-1.13v-5.85zm1.96 5.8c0 .43.08.75.21.97.16.21.43.3.83.3.4 0 .67-.11.83-.3.13-.21.21-.51.21-.97v-5.77c0-.43-.08-.75-.21-.97-.16-.21-.43-.3-.83-.3-.4 0-.67.11-.83.3-.13.21-.21.51-.21.97v5.77zm5.53 2.82V29.96h1.83l2.39 6.52h.03v-6.52h1.77v11.38h-1.72l-2.5-7.11h-.03v7.11h-1.77zm8.83 0h-1.91l2.09-11.38h2.44l2.09 11.38H74.9l-.35-2.52H72.4c.05 0-.3 2.52-.3 2.52zm.61-4.21h1.58l-.78-4.89h-.03c.01-.03-.77 4.89-.77 4.89zm4.94 4.21V29.96h1.96v9.69h3.09v1.69h-5.05zm49.58-13.74c-.21-.08-.24-.75-.38-.75-.19 0-.27.62-.64.7-.38.05-.91-.4-1.07-.27s.35.99-.48.99c-.24 0-.38-.27-.38-.48v-6.66s.03 0 .4.08c.24.05.48.19.48.51 0 .19-.05.54.05.62.13.05.21-.05.27-.08 1.13-.83 1.4.64 1.64.64.21 0 .19-.99.48-.99.24-.11 2.6 1.05 2.6 1.77 0 .16-.3.19-.32.35-.03.21.54.3.46.7-.03.24-.59.56-.43.7.16.16.89-.16.94-.16.16 0 .19.24.19.32.05 1.31-3.11 2.3-3.81 2.01m-8.38 1.07c-.19-.3-.08-.83-.27-.83-.08 0-.59.72-.86.72s-.72-.51-.91-.51c-.13 0 .13.72-.13 1.05-.16.21-1.61.38-1.61.19V18.9c0-.48.38-.67.7-.67h5.48c.67 0 .94.21.94.91v9.34c-.01.27-3.23.41-3.34.19m3.33 13.18c0 .64-.21.81-.75.67l-5.85-1.15c-.35-.05-.51-.27-.51-.64V30.15c0-.27.94-.3 1.1-.19.27.24.19 1.13.38 1.13.24 0 .89-1.07 1.15-1.07.59 0 .97.35 1.1.27.13-.05.13-.56.27-.67.21-.16.86-.16 1.18-.19.51-.03 1.05-.08 1.56-.11.4 0 .38.27.38.86v11.67zm-6.3-30.71c0-4.21 6.23-6.63 6.66-8.78.46.43.51 1.13.51 1.74 0 2.58-4.46 6.87-4.46 9.99 0 .35.03.43.03.64 0 .3-.13.38-.19.38-.7.01-2.55-1.42-2.55-3.97m-3.44 26.39c-.48 0-.81-.99-.91-.94-.16.03.03.83-.16.94-.16.16-3.38-1.34-3.65-1.58-.21-.21.08-.51 0-.72-.05-.19-.56-.13-.7-.21-.13-.11.16-.67-.03-.81-.16-.08-.48.56-.7.24-.11-.13-.11-.32-.11-.62 0-1.88 1.99-2.63 3.33-3.09.54-.19.35.51.54.54.21.05.24-.35.48-.35.19 0 .89.35 1.05.21.13-.08-.38-.54-.21-.72.19-.16 1.61-.43 1.58-.05v6.52c0 .72-.51.64-.51.64m19.19-11.25c.35-.59.35-1.29.46-1.56.19-.3.86-.24.86-.46 0-.08-.48-.21-.67-.32-.35-.21-.24-1.32-.43-1.32-.27 0-.56.75-.83.43-.48-.62-2.5-1.77-3.41-2.12-.35-.13.24-1.13.08-1.23-.16-.08-.56.62-1.13.48-.46-.08-.24-.91-.48-.91-.13 0-.59 1.15-.91 1.07-.38-.08-.86-.21-.86-.21v-3.06c0-.51-.35-.91-.81-.91h-3.3c-.91 0-.86-.67-.86-.83 0-4.05 5.91-4.75 5.91-10.07 0-2.34-1.48-3.89-3.17-5.26-.11-.05 0 .35 0 .48 0 2.47-9.21 3.76-9.21 9.48 0 4.99 4.97 5.21 4.97 5.96 0 .16-.3.21-.35.21h-3.78c-.4 0-.75.24-.72.91v3.06c-.38.13-.86-.43-1.1-.43-.13 0-.05.94-.27 1.07-.19.08-3.65 1.32-3.95 1.34-.48.08-.35-.75-.64-.75-.24 0-.24.86-.86.86-.38 0-.67-.35-.94-.35-.19 0 .4.7.4.91 0 .59-1.13.81-1.13 1.18 0 .21 1.07-.08 1.23-.08.54 0 .48.64.7.64.21 0 .38-.75.56-.86.38-.21.81.16.97.16.3 0-.24-.72.03-.86 0 0 3.73-1.58 3.97-1.48.21.13.19.48.43.62.24.11.62-.86.62-.24v7.49c-.43.27-1.34.43-1.83.43-.24 0-.13-.81-.27-.81-.24 0-.48.67-.86.67-.35 0-.83-.83-1.15-.83-.21 0 .4 1.05.03 1.23-1.4.7-3.65 1.37-3.65 3.6 0 .46.24 1.02.16 1.15-.08.21-.56.64-.54.83 0 .19.91.11 1.1.4.08.16.16.83.35.83.16 0 .54-.51.89-.35 1.07.64 2.93 1.34 3.78 1.8.21.13.08.81.21.86.24.13.72-.64 1.5-.21.16.05.3.3.3.59v2.5c0 .46.21.59.46.64l9.13 1.83s.81.19 1.07.19c.32 0 .7 0 .7-.78V38.2c0-.05.08-.19.19-.19.54 0 .27 1.53.38 1.53.24 0 .4-1.05.7-1.05.43 0 .7.4.89.3.16-.08-.08-.59-.08-.89 0-.27.78-.4 1.77-.75.86-.3 1.56-.64 1.83-.64.21 0 .35.59.54.59.16 0 .19-.75.51-.75.27 0 .89.43 1.05.3.11-.08-.3-.67.03-.91.24-.16.83-.51.83-.67 0-.08-1.13-.13-1.18-.13-.21-.05-.46-.72-.62-.72-.19 0-.19.67-.46.89-.24.19-.86-.64-1.13-.64-.16 0 .19.62.19 1.1 0 .48-2.95 1.42-3.36 1.42-.62 0-.64-.75-.78-.75-.19 0-.19.94-.86.94-.24.03-.43-.16-.46-.4v-7.33c0-.21.05-.48.46-.51.51-.03.51 1.13.7 1.13.35 0 .51-1.13 1.15-1.13.48 0 .89.67 1.18.67.21 0-.38-.7-.38-1.05-.04-.34 3-.24 4.15-2.28"/>
</svg>
