<svg xmlns="http://www.w3.org/2000/svg" xml:space="preserve" width="153" height="84.6" viewBox="0 0 153 84.6">
  <path fill="#fff" d="M102.92 18.09c0 6.34-4.11 10.1-8.81 10.1s-8.81-3.76-8.81-10.1 4.11-10.1 8.81-10.1 8.81 3.76 8.81 10.1m-13.74 0c0 3.41 2.23 6.11 4.82 6.11 2.7 0 4.82-2.7 4.82-6.11s-2.23-6.11-4.82-6.11-4.82 2.71-4.82 6.11z"/>
  <circle cx="65.8" cy="25.97" r="2.23" fill="#fff"/>
  <path fill="#fff" d="M4.46 2.23C4.46 1.06 3.52 0 2.23 0S0 .94 0 2.23v23.73c0 1.17.94 2.23 2.23 2.23 1.17 0 2.23-1.06 2.23-2.23v-9.4c0-2.35 1.88-4.11 4.11-4.11 2.35 0 4.11 1.88 4.11 4.11v9.4c0 1.17.94 2.23 2.23 2.23s2.23-1.06 2.23-2.23v-9.4c0-4.7-3.88-8.58-8.58-8.58-1.53 0-2.94.35-4.11 1.06V2.23zM35.6 16.21c0-2.11 1.64-3.76 3.76-3.76 2.11 0 3.76 1.64 3.76 3.76v9.75c0 1.17.94 2.23 2.23 2.23 1.17 0 2.23-1.06 2.23-2.23v-9.75a8.17 8.17 0 0 0-8.22-8.22c-2.35 0-4.46.94-5.99 2.58-1.53-1.64-3.64-2.58-5.99-2.58a8.17 8.17 0 0 0-8.22 8.22v9.75c0 1.17.94 2.23 2.23 2.23 1.17 0 2.23-1.06 2.23-2.23v-9.75c0-2.11 1.64-3.76 3.76-3.76 2.11 0 3.76 1.64 3.76 3.76v9.75c0 1.17 1.06 2.23 2.23 2.23s2.23-1.06 2.23-2.23v-9.75zm29.26-8.1c-1.17-.47-2.47 0-2.94 1.17 0 0-2.7 7.4-4.7 11.98-2-4.58-4.7-11.98-4.7-11.98-.47-1.17-1.76-1.64-2.94-1.17s-1.64 1.76-1.17 2.94l6.81 15.74c.35.82 1.17 1.29 2 1.29.94 0 1.64-.59 2-1.29l6.81-15.74c.47-1.06-.12-2.47-1.17-2.94"/>
  <path fill="#fff" d="M49.46 8.11c1.17-.47 2.47 0 2.94 1.17 0 0 2.7 7.4 4.7 11.98 2-4.58 4.7-11.98 4.7-11.98.47-1.17 1.76-1.64 2.94-1.17s1.64 1.76 1.17 2.94L59.1 26.79c-.35.82-1.17 1.29-2 1.29-.94 0-1.64-.59-2-1.29l-6.81-15.74c-.47-1.06.12-2.47 1.17-2.94m71.56 8.1c0-2.11 1.64-3.76 3.76-3.76 2.11 0 3.76 1.64 3.76 3.76v9.75c0 1.17.94 2.23 2.23 2.23 1.17 0 2.23-1.06 2.23-2.23v-9.75a8.17 8.17 0 0 0-8.22-8.22c-2.35 0-4.46.94-5.99 2.58-1.53-1.64-3.64-2.58-5.99-2.58a8.17 8.17 0 0 0-8.22 8.22v9.75c0 1.17.94 2.23 2.23 2.23 1.17 0 2.23-1.06 2.23-2.23v-9.75c0-2.11 1.64-3.76 3.76-3.76 2.11 0 3.76 1.64 3.76 3.76v9.75c0 1.17 1.06 2.23 2.23 2.23s2.23-1.06 2.23-2.23v-9.75zm-51.7 1.88c0 5.99 3.76 10.1 9.05 10.1 3.17 0 5.29-1.76 5.29-1.76.47-.35.82-1.06.82-1.76 0-1.17-.94-2.11-2.23-2.11-.47 0-1.06.12-1.41.47 0 0-1.06 1.06-2.58 1.06-2.7 0-4.93-2.7-4.93-5.99s2.11-6.11 4.82-6.11c1.53 0 2.82 1.06 2.82 1.06.35.35.82.47 1.41.47 1.17 0 2.23-.94 2.23-2.11 0-.7-.35-1.29-.82-1.76-.12-.12-2.11-1.76-5.29-1.76-5.54.1-9.18 4.21-9.18 10.2z"/>
</svg>
