<svg xmlns="http://www.w3.org/2000/svg" width="110" height="70" viewBox="0 0 110 70"><g fill="#fff" fill-rule="nonzero"><path d="M18.934 0h10.243c.47.097.95.16 1.408.297 1.705.513 2.88 1.677 3.775 3.163 1.367 2.27 1.766 4.766 1.671 7.367-.08 2.176-.571 4.236-1.79 6.078-.96 1.449-2.225 2.477-3.946 2.88-.237.056-.476.107-.714.16H18.934c.004-.112.011-.224.011-.336V.37c0-.123-.007-.246-.01-.369Zm4.417 15.633c.08.012.124.025.168.025 1.504 0 3.007.002 4.511-.001.679-.002 1.263-.263 1.696-.767a5.8 5.8 0 0 0 .858-1.275c.805-1.699.89-3.504.66-5.334-.136-1.068-.463-2.078-1.125-2.952-.558-.735-1.29-1.12-2.226-1.114-1.403.01-2.806.002-4.209.004-.107 0-.214.013-.333.022v11.392Zm-6.168 4.312H6.536c-.063-.02-.124-.05-.189-.059-1.519-.21-2.776-.906-3.786-2.05C1.327 16.438.615 14.789.276 12.973.153 12.316.09 11.647 0 10.983V9.3c.022-.142.054-.283.065-.425.164-2.117.73-4.1 1.936-5.872C2.978 1.567 4.248.539 5.981.166c.317-.069.64-.111.96-.166h10.174c.012.066.033.131.033.197.002 1.268.001 2.537-.001 3.806 0 .063-.02.126-.036.214h-.414c-2.807 0-5.614-.001-8.42.003-.246 0-.497.01-.736.06-.92.19-1.507.806-1.937 1.59-.835 1.524-.98 3.176-.852 4.869.1 1.303.415 2.544 1.154 3.647.572.853 1.345 1.291 2.404 1.282 2.807-.024 5.614-.008 8.42-.008h.419c0 1.117-.003 2.181.001 3.245.002.347.021.694.033 1.04ZM41.844 0c.009.123.024.245.024.367.01 3.785.017 7.568.032 11.353.001.335.042.672.096 1.004.241 1.483 1.178 2.34 2.575 2.69.656.165 1.353.215 2.033.225 2.02.028 4.042.01 6.063.011h.43v4.295h-8.625c-.343-.045-.686-.086-1.029-.137-2.778-.412-4.674-1.941-5.66-4.56-.48-1.277-.493-2.637-.496-3.984-.008-3.646-.003-7.292 0-10.938 0-.109.028-.217.043-.326h4.514ZM55.995 7.141c.11-.638.163-1.292.34-1.912.85-2.989 3.634-5.08 6.735-5.09 1.212-.005 2.424-.002 3.66-.002v4.218c-.11.005-.229.015-.347.016-1.055 0-2.11-.003-3.166.001-1.71.007-2.95 1.245-2.957 2.958a764.05 764.05 0 0 0 0 5.49c.007 1.708 1.256 2.945 2.965 2.946 3.773.002 7.545.002 11.318 0 1.713-.001 2.95-1.24 2.95-2.95.003-1.831.003-3.661 0-5.492 0-1.71-1.237-2.946-2.952-2.952-1.044-.004-2.088 0-3.133 0h-.377V.182c.036-.018.055-.037.074-.037 1.47.016 2.948-.063 4.407.068 3.138.283 5.789 2.954 6.15 6.082.059.511.067 1.03.07 1.545.008 1.628 0 3.256.003 4.885.003 1.64 1.26 2.902 2.899 2.906 1.818.004 3.637 0 5.456 0v4.246c-1.84-.004-3.681-.008-5.522-.01a7.038 7.038 0 0 1-2.405-.432c-.93-.336-1.746-.86-2.476-1.54l-.288.259a7.05 7.05 0 0 1-2.726 1.55c-.287.088-.578.16-.868.24H61.992c-.063-.022-.124-.051-.188-.066-2.861-.647-4.72-2.373-5.534-5.19-.156-.543-.187-1.122-.275-1.685V7.141Z"/></g></svg>