<svg xmlns="http://www.w3.org/2000/svg" xml:space="preserve" viewBox="0 0 144 94.84" width="144" height="94.84">
  <path fill="#fff" d="M28.42 14.19s.26-.08.42.08c0 0 .15.11.09.45l.33.05-.19-.72-.32-.09-.29.16-.04.07zm51.55 11.1c-.38 0-.72.15-1.1.45l-.91.74c-.46.37-.8.63-1.07.82.95-1.94 2.37-3.55 2.38-5.89 0-2.57-1.88-3.92-3.97-3.92-1.75 0-3.35.98-4.8 2.47-.72-1.45-2.1-2.09-3.51-2.09-1.71 0-3.8 1.16-5.11 2.76v-.04c0-1.83-1.17-2.35-2.09-2.35-.88 0-1.54.52-1.8.78 0 0-2.37 2.28-4.01 3.87 0 0-.73.71-.73.72-.95.93-2.56 2.49-4.13 3.65-.29.21-.43.32-.55.32-.09 0-.18-.04-.18-.23 0-.26.13-.86.25-1.31.42-1.6 1.33-4.01 2.32-6.5.08-.22.15-.48.15-.71 0-.97-.91-1.6-1.79-1.6-.72 0-1.29.41-1.56 1.08-1.03 2.57-7.43 9.74-9.18 9.74-.14 0-.27-.03-.37-.09-.18-.14-.17-.51-.17-.57.11-1.91 2.64-6.08 2.64-7.96 0-1.53-1.3-1.88-2.01-1.88-.55 0-1 .24-1.34.61-1 1.11-5.41 5.37-5.41 5.37-.13.12-2.69 2.63-4.25 4.05-.13.11-.21.06-.21.06-.09-.03-.08-.15-.07-.2.54-3.25 4.88-9.45 4.88-13.1 0-1.98-1.42-3.39-3.48-3.39-1.08 0-2.22.49-3.45 1.34-.58.39-1.18.88-1.83 1.56.11-.46.17-.88.17-1.23 0-2.16-1.28-3.79-3.49-3.79-1.7 0-3.58 1.13-5.49 2.83-.94.85-2.06 2.02-3.18 3.5.83-1.7 1.37-3.01 1.37-3.86 0-2.09-1.77-2.83-3.39-2.83-4.12 0-7.03 2.8-9.05 5.33-.27.34-.45.75-.45 1.06-.01.91.9 1.57 1.77 1.57.43 0 .93-.19 1.26-.67 1.42-2.02 3.68-4.14 6.16-4.1.05 0 .17.01.22.08 0 0 .05.05 0 .17-1.84 4.19-7.5 13.41-7.5 16.23 0 1.41 1.37 1.82 1.92 1.82.72 0 1.45-.59 1.81-1.15l.25-.39c1.88-2.9 9.89-15.28 13.79-16.34.15-.03.27-.05.38-.05.22.01.38.15.38.58 0 2.76-5.33 11.49-5.93 12.66-.13.26-.28.64-.28.92 0 .85.8 1.55 1.7 1.55.51 0 .98-.33 1.3-.78.19-.27.4-.57.62-.89 2.72-4.06 7.78-11.27 10.61-11.89.11-.03.23-.02.28 0 .01 0 .12.02.16.08.04.05.05.1.05.23-.13 2.54-5.06 8.18-5.06 13.39 0 1.49.49 3.39 2.63 3.53 3.33.23 7.77-5.15 7.99-5.39l.55-.67c-.23.82-.38 1.6-.38 2.31 0 2.05 1.4 3.84 3.76 3.76 1.96-.07 4.21-1.54 6.23-3.95v.37c0 1.75 1 3.39 3.02 3.39 2.05 0 4.7-2.06 8.01-5.3l.63-.61.94-.89.32-.31c-.39 1.65-1.6 4.14-2.24 5.1-.19.3-.34.65-.34.98 0 .93.88 1.63 1.79 1.63.61 0 1.1-.33 1.41-.81 1.1-1.6 6.24-9.81 8.72-9.81.27 0 .6.1.6.73 0 1.16-.6 2.73-1.36 4.19-.5.97-.99 1.82-1.37 2.5-.15.3-.27.6-.27.86 0 .93.88 1.68 1.79 1.68.65 0 1.18-.37 1.49-.89l1.45-2.68c1.6-2.91 4.2-6.66 6.03-6.77.33-.02.61.2.63.61.07 2.01-2.7 4.1-2.7 6.6 0 1.64 1.18 2.94 2.89 2.94 1.33 0 2.7-.78 4.11-1.97l.88-.75c.42-.37.65-.82.65-1.23-.03-.89-.83-1.74-1.78-1.74m.26-13.82c-.19 0-.32.15-.59.39l-.23.23c-.18.17-.57.48-.88.48h-.02c-.3-.01-.53-.15-.53-1 0-.52.16-1.21.41-1.98 1.52-1.52 3.84-4.02 3.84-5.72 0-.46-.34-.71-.72-.71-1.21 0-3.05 3.43-3.91 5.9-.34.34-1.03 1.02-1.2 1.17-.72.65-1.93 1.87-2.94 1.87-.67 0-.89-.61-.92-1.15 1.6-.12 3.19-1.06 3.19-2.25 0-.69-.52-1.26-1.3-1.26-1.03 0-2.57 1.14-2.8 2.88-.44.42-1.66 1.58-2.37 2.04l-.09.06c-.09.05-.14-.01-.14-.01-.03-.04-.02-.09-.01-.12.04-.1.1-.22.1-.22l.59-1.2c.18-.34.32-.68.32-1 0-.8-.52-1.36-1.37-1.36-1 0-2.02.84-2.88 1.78.13-.49.21-.97.21-1.35 0-.12-.05-.63-.57-.63-.25 0-.44.17-.52.26-.38.44-.99 1.1-1.3 1.41l-.25.25c-.32.31-1.49 1.42-2.17 1.87-.08.05-.13.07-.16.07s-.06-.02-.06-.07c0-.03.01-.08.02-.15.16-.78.59-1.49.59-2.33 0-.81-.56-1.44-1.39-1.44-.91 0-1.75.55-2.72 1.73.09-.41.16-.78.16-.97 0-.12-.05-.63-.56-.63-.5 0-1.05.83-1.8 1.62 0 0-.16.17-.51.53-.36.36-.87.81-1.27 1.13-.11.09-.16.12-.24.11-.09-.01-.12-.12-.12-.3.01-.58.17-1.41.66-2.08l.31-.43a.44.44 0 0 0 .08-.26.483.483 0 0 0-.48-.47c-.12 0-.25.06-.36.2-.09.11-.17.22-.25.34-.33-.43-.78-.64-1.3-.64-1.12 0-2.12.82-2.7 1.82-.55.56-1.03.98-1.35 1.25l-.14.11c-.45.37-1.24.89-1.43.86-.03-.01-.05-.03-.05-.07 0-.14.17-.44.39-.8.44-.71 1.07-1.33 1.07-2.35 0-.78-.55-1.24-1.3-1.24-.89 0-2.02.97-3.08 2.25.09-.37.2-.74.3-1.09 1.58-1.9 2.94-4.38 2.94-5.06 0-.38-.23-.75-.69-.75-.17 0-.33.08-.42.14-.5.31-2.04 3.19-2.68 5.24-.52.6-1.85 1.85-1.85 1.85-.78.71-2.03 2.11-3.15 2.11-.67 0-.94-.4-.94-1.09 0-1.21.94-2.51 1.96-2.51.08 0 .16.02.21.05-.06.09-.09.2-.09.31 0 .33.27.59.61.59.2 0 .38-.1.49-.24.02-.02.04-.05.05-.08l.01-.02s.1-.19.07-.47c-.05-.49-.44-.76-.44-.76-.19-.13-.38-.2-.56-.24-.09-.02-.17-.03-.26-.04h-.08c-1.8 0-2.88 1.99-2.88 3.4 0 1.01.53 2.01 1.91 2.01 1.5 0 2.9-1.44 3.87-2.39 0 0 .39-.38.47-.46-.27.9-.53 1.7-.77 2.24-.03.08-.05.15-.05.23 0 .26.22.46.45.46.16 0 .33-.09.44-.28 1.53-2.54 3.34-4.51 4.17-4.51.14 0 .21.03.28.1.04.04.08.13.08.23 0 1.06-1.46 2.18-1.46 3.32 0 .47.35.81.83.81.61 0 1.52-.52 2.56-1.4v.08c-.02.61-.01 1.44.93 1.44.75 0 1.47-.81 2.25-1.75v.05c0 .58.46 1.26 1.16 1.26.75 0 1.7-.85 2.33-1.41.13-.12 1.02-.98 1.24-1.21-.2.77-.49 1.75-.68 2.34a.71.71 0 0 0-.04.2c-.01.26.23.44.46.44.16 0 .33-.08.44-.28 1.79-2.97 2.79-3.71 3.56-3.68.25.01.45.15.45.52 0 .93-.62 1.79-.62 2.73 0 .43.28.83.78.83.94 0 2.65-1.73 3.19-2.27l.33-.33c.16-.15.34-.33.58-.59-.19.8-.5 1.72-.75 2.28-.03.08-.05.15-.05.23 0 .26.23.44.49.44.17 0 .27-.06.38-.2.78-.97 2.51-3.31 3.71-3.31.22 0 .43.14.43.45 0 .51-1.06 1.69-1.06 2.77 0 .46.31.84.81.83.75-.02 2.01-1.12 2.85-1.92.21.84.79 1.48 1.77 1.48 1.36 0 2.71-1.27 3.62-2.16l.03-.03c-.05.26-.06.52-.06.74 0 .9.31 1.92 1.47 1.92.49 0 .91-.23 1.33-.58l.44-.41c.2-.2.42-.37.42-.58-.07-.25-.28-.44-.53-.44m.99-7.18c-.24.85-.94 1.82-1.82 2.85.23-.49 1.16-2.22 1.82-2.85m-6.8 4.08c.1 0 .18.04.25.08.05.03.12.1.15.2s.05.26-.04.44c-.38.75-2.1.92-2.11.91.29-.8.99-1.63 1.75-1.63M49.7 12.2c-.06 0-.24-.03-.24-.54 0-1.26 1.21-2.7 2.29-2.7.36 0 .6.24.72.54-.88 1.16-2.15 2.7-2.77 2.7m64.95 4.36c-.26 0-.49.09-.72.32l-.68.63c-1.11.96-1.14 1.03-2.47 2.15l-.07.06c-.07.05-.12.03-.12.03-.06-.02-.05-.09-.05-.13.34-2.09 3.1-6.08 3.1-8.43 0-1.28-.91-2.18-2.22-2.18-.69 0-1.42.32-2.21.86-.37.25-.76.57-1.17 1 .07-.3.11-.56.11-.79 0-1.39-.82-2.44-2.23-2.44-1.09 0-2.29.73-3.51 1.82-.6.55-1.32 1.3-2.03 2.25.53-1.09.88-1.93.88-2.48 0-1.34-1.13-1.82-2.17-1.82-2.63 0-4.49 1.8-5.78 3.43-.17.22-.29.48-.29.68-.01.59.58 1.01 1.13 1.01.28 0 .59-.12.81-.43.91-1.3 2.35-2.67 3.94-2.64.03 0 .11.01.14.05 0 0 .03.03 0 .11-1.18 2.7-4.8 8.63-4.8 10.45 0 .91.88 1.17 1.23 1.17.46 0 .92-.38 1.16-.74l.16-.25c1.2-1.87 6.33-9.83 8.82-10.52.09-.02.18-.03.24-.03.14.01.25.1.25.37 0 1.78-3.41 7.4-3.79 8.15-.08.17-.18.41-.18.59 0 .55.51 1 1.09 1 .32 0 .63-.21.83-.5.12-.18.26-.37.39-.57 1.74-2.61 5-7.27 6.8-7.67a.28.28 0 0 1 .16 0s.05.01.08.05c.02.03.05.09.05.17-.08 1.63-3.23 5.27-3.23 8.62 0 .96.31 2.18 1.68 2.27h.09c.18.01.23 0 .23 0 1.65-.12 3.64-2.34 4.74-3.45l.37-.4c.23-.26.33-.46.33-.71 0-.55-.53-1.06-1.09-1.06m-4.05 7.45c-3.05 2.14-6.49 3.6-10.04 2.15-1.3-.53-2.92-1.76-3.83-2.77-.91-1.01-2.83.66-1.93 1.65 1.36 1.5 3.23 2.96 5.13 3.59 4.54 1.42 8.44-.35 11.87-2.86 1.41-.96.18-2.73-1.2-1.76m9.61-1.61c-1.33 2.89-3.5 5.38-6.11 7.23-5.22 3.7-12.12 4.3-17.74 1.07-6.18-3.55-8.48-9.8-7.93-16.62.3-3.76 1.5-7.44 5-9.42 3.03-1.71 6.69-1.93 10.07-1.41.49.07.95-.13 1.27-.43 5.61 1.67 11.03 4.92 14.47 9.54 2.34 3.13 2.6 6.52.97 10.04m3.43-7.25c-1.18-4.25-5.08-7.63-8.64-10.03-3.81-2.56-8.12-4.26-12.65-5.1-.77-.14-1.48.41-1.64.97-5.92.08-11.92 2.57-13.98 8.49-2.55 7.33-.85 16.15 5.31 21.17 5.75 4.68 13.69 5.4 20.37 2.29 6.22-2.87 13.27-10.46 11.23-17.79"/>
</svg>
