<svg xmlns="http://www.w3.org/2000/svg" xml:space="preserve" width="67" height="124" viewBox="0 0 67 124">
  <g fill="#fff">
    <path d="M17.84 11.31c1.93.11 2.5-3.7.68-3.8-2.01-.11-2.66 3.69-.68 3.8zM5.57 8.65H4.25L3.8 11.2h.89c.51 0 .76-.02.91-.06 1.56-.38 1.72-2.49-.03-2.49zm.47-3.34h-1.2l-.43 2.44h.92c.41 0 .63-.02.8-.07 1.23-.41 1.34-2.37-.09-2.37z"/>
    <path d="M0 0v47h47V0H0zm21.71 9.46c.17-1.51 1.19-2.93 2.91-2.93.97 0 1.58.51 1.79.94l.16-.83h1.18l-.96 5.43h-.34c-.4 0-.82-.31-.72-.82l.02-.08c-.35.54-.92 1.01-1.99 1.01-1.13.01-2.24-1-2.05-2.72zm-13.53.51c-.11.74-.67 1.74-2.05 2.03-.3.06-.84.08-1.4.08H2.27l1.35-7.6H6.3c1.39 0 2.18.57 2.18 1.8 0 1.15-.98 1.72-1.53 1.84.74.15 1.38.83 1.23 1.85zm6.29-2.51c-.03.2-.39 2.17-.46 2.56-.23 1.18-.94 2.17-2.84 2.17-1.1 0-1.99-.62-2.11-1.63-.02-.2 0-.5.05-.8.13-.75.47-2.66.55-3.11h.31c.41 0 .91.23.81.82-.03.18-.4 2.34-.46 2.64-.13.76.42 1.1.98 1.1.99 0 1.34-.5 1.47-1.23l.58-3.33h.35c.37 0 .85.23.77.81zm.16 5.74c.14-.7 1.16-6.55 1.16-6.55h.38c.38 0 .83.29.72.82l-.01.07c.35-.51 1.04-1 2.04-1 1.16 0 2.16.98 2.05 2.69-.11 1.6-1.19 2.97-2.95 2.97-.97 0-1.59-.54-1.8-.97l-.55 3h-.31c-.22-.01-.89-.2-.73-1.03zm29.87 2.32c-.09.01-.42.02-.73.02-.47 0-1.15-.03-1.68-.17-.79-.22-1.5-.64-1.92-.95-.08-.06-.15-.11-.21-.15-.4-.27-.67-.27-.92-.01-.16.17-.71.99-1.2 1.71-.2.29-.38.57-.53.78-.29.42-.7.69-1.03.69-.29 0-.53-.2-.68-.57-.28-.67-.46-7.23-.53-10.96V5.9c0-.08-.05-.12-.1-.12s-.09.04-.11.11c0 .01-.02.09-.06.24-.86 3.69-2.89 12.5-3.23 13.57-.25.8-.7 1.32-1.14 1.32-.29 0-.54-.24-.71-.66-.36-.92-.65-2.3-.84-3.17-.06-.26-.1-.49-.15-.66-.08-.34-.18-.56-.4-.56-.16 0-.36.12-.65.33-.57.41-1.52 1-2.55 1H15.1l.23-1.27h9.56c.98 0 1.57-.51 2.09-.96.18-.16.35-.31.53-.42.81-.54 1.48-.5 1.93.14.4.56.6 1.58.83 2.76.07.37.15.82.24 1.21.02.1.14.11.16 0 .78-3.82 2.59-11.37 3.44-14.76.33-1.33.87-1.81 1.22-1.81.44 0 .76.63.83 1.66.16 2.31.38 10.05.39 11.47 0 .04 0 .14.08.14.04 0 .07-.04.09-.07.34-.51 1.18-1.75 1.71-2.29.39-.4.71-.58 1.05-.58.25 0 .5.1.81.3.25.17.49.35.72.53.45.35.88.68 1.37.85.41.14 1.1.17 1.61.17.29 0 .6-.01.71-.01l-.2 1.16z"/>
    <path d="M24.11 11.2c2.01.11 2.66-3.68.68-3.79-1.93-.1-2.5 3.69-.68 3.79z"/>
  </g>
</svg>
