<svg xmlns="http://www.w3.org/2000/svg" fill="none" width="95px" height="67px" viewBox="0 0 95 67">
  <path fill="#FFF" d="M19.489 8.007A4.003 4.003 0 1 1 19.457 0a4.003 4.003 0 0 1 .032 8.007Zm0-6.602a2.598 2.598 0 1 0-.02 5.196 2.598 2.598 0 0 0 .02-5.195Z"/>
  <path fill="#FFF" fill-rule="evenodd" d="M66.74 8.629c2.175 0 5.141.561 6.918 3.236a8.861 8.861 0 0 1 1.34 4.868v9.263h-3.956v-9.263c0-.615-.088-1.78-.675-2.664-.656-.988-1.842-1.468-3.627-1.468-1.836 0-3.066.632-3.663 1.468-.573.804-.64 1.817-.64 2.665v9.263h-3.956V4.94h3.957v4.506a10.308 10.308 0 0 1 4.302-.816Zm-53.748 11.63a5.015 5.015 0 1 1 0-5.892l3.04-2.546a8.965 8.965 0 1 0-7.08 14.478 8.929 8.929 0 0 0 7.08-3.494l-3.04-2.546Zm41.071 0a5.015 5.015 0 1 1 0-5.892l3.04-2.546a8.964 8.964 0 1 0-7.08 14.478 8.93 8.93 0 0 0 7.08-3.494l-3.04-2.546Zm-32.595 5.737h-3.956V9.7h3.956v16.295Zm18.215 0h-3.956v-9.262c0-.616-.088-1.78-.676-2.665-.656-.988-1.842-1.468-3.626-1.468-1.836 0-3.068.631-3.663 1.468-.573.804-.639 1.817-.639 2.665v9.263h-3.957v-9.263c0-1.395.143-3.449 1.377-5.182 1.38-1.94 3.695-2.923 6.882-2.923 2.176 0 5.142.561 6.918 3.236a8.862 8.862 0 0 1 1.34 4.867v9.265Z" clip-rule="evenodd"/>
</svg>